<svg width="231" height="31" viewBox="0 0 231 31" fill="none" xmlns="http://www.w3.org/2000/svg">
<path d="M46.0622 21.7464C45.7687 21.7937 45.4752 21.8221 45.1722 21.8505C44.8693 21.8789 44.5663 21.8979 44.2539 21.9168V28.2224H38.4974V3.3031H44.2539C45.6835 3.32204 47.0279 3.58713 48.2777 4.08893C49.5274 4.59072 50.6257 5.25347 51.563 6.09611C52.5098 6.93874 53.2483 7.91392 53.7785 9.02166C54.3087 10.1294 54.5833 11.3223 54.5833 12.591C54.5833 13.926 54.2992 15.1757 53.7311 16.3213C53.1631 17.4669 52.3678 18.4611 51.3453 19.3037L56.865 28.2224H50.086L46.0622 21.7464ZM44.2539 16.1225C44.8693 16.1036 45.4563 15.99 46.0054 15.8006C46.564 15.6113 47.0469 15.3556 47.4729 15.0337C47.8895 14.7118 48.2209 14.3426 48.4576 13.926C48.6943 13.5094 48.8174 13.0549 48.8174 12.5816C48.8174 12.1082 48.6943 11.6632 48.4576 11.2561C48.2209 10.8489 47.8895 10.4797 47.4729 10.1673C47.0563 9.84536 46.564 9.58973 46.0054 9.40037C45.4468 9.21102 44.8598 9.0974 44.2539 9.07847V16.1225Z" fill="#F7F7F8"/>
<path d="M75.0621 8.96484H64.7706V12.752H73.1212V18.5084H64.7706V22.4659H75.0621V28.2224H59.0142V3.23682L75.0716 3.19894V8.96484H75.0621Z" fill="#F7F7F8"/>
<path d="M98.3813 14.21V28.2224H92.587V27.607C91.9527 27.8342 91.2994 27.9951 90.6272 28.0993C89.955 28.2034 89.2922 28.2508 88.6295 28.2508C87.0105 28.2508 85.4388 27.9478 83.8956 27.3324C82.3523 26.717 80.9606 25.7986 79.7392 24.5678C78.5179 23.337 77.5995 21.9641 76.9936 20.4304C76.3876 18.8966 76.0941 17.3249 76.0941 15.7059C76.0941 14.0869 76.3971 12.5153 76.9936 10.972C77.59 9.42876 78.5084 8.03699 79.7392 6.81564C80.97 5.59429 82.3523 4.66645 83.8956 4.05104C85.4388 3.43563 87.02 3.13266 88.6295 3.13266C90.239 3.13266 91.8201 3.43563 93.3634 4.05104C94.9067 4.66645 96.2984 5.58482 97.5198 6.81564L93.4297 10.9057C92.7669 10.243 92.019 9.75066 91.1763 9.41929C90.3337 9.08791 89.4816 8.92696 88.62 8.92696C87.7585 8.92696 86.9064 9.08791 86.0637 9.41929C85.2211 9.75066 84.4731 10.243 83.8104 10.9057C83.1476 11.5685 82.6553 12.3164 82.3145 13.1591C81.9736 14.0017 81.8032 14.8538 81.8032 15.7154C81.8032 16.577 81.9736 17.4291 82.3145 18.2717C82.6553 19.1143 83.1571 19.8623 83.8104 20.525C84.3974 21.112 85.0696 21.576 85.8081 21.9073C86.5466 22.2387 87.304 22.4281 88.0898 22.4849C88.8757 22.5417 89.652 22.4659 90.4284 22.2671C91.2047 22.0588 91.9148 21.718 92.5776 21.2446V19.9854H87.5786V14.2289H98.3813V14.21Z" fill="#F7F7F8"/>
<path d="M111.939 28.1857C110.33 28.1857 108.749 27.8827 107.215 27.2863C105.681 26.6803 104.299 25.7714 103.077 24.5406C101.894 23.3382 100.994 21.9748 100.37 20.4694C99.7447 18.9546 99.4323 17.364 99.4323 15.6787C99.4323 13.9745 99.7447 12.365 100.37 10.8596C100.994 9.35423 101.894 8.00034 103.077 6.81686C104.308 5.58604 105.69 4.66767 107.234 4.05226C108.777 3.43685 110.349 3.13388 111.958 3.13388C113.558 3.13388 115.13 3.43685 116.664 4.05226C118.197 4.66767 119.58 5.58604 120.801 6.81686L116.749 10.8691C116.086 10.2063 115.338 9.71401 114.496 9.38264C113.653 9.05126 112.801 8.89031 111.939 8.89031C111.078 8.89031 110.226 9.05126 109.402 9.38264C108.569 9.71401 107.83 10.2063 107.167 10.8691C106.533 11.5318 106.041 12.2703 105.7 13.0846C105.359 13.8988 105.189 14.7698 105.189 15.6787C105.189 16.5876 105.359 17.4492 105.7 18.254C106.041 19.0587 106.533 19.7972 107.167 20.4505C107.83 21.1133 108.569 21.6056 109.402 21.937C110.235 22.2683 111.078 22.4293 111.939 22.4293C112.801 22.4293 113.653 22.2683 114.496 21.937C115.338 21.6056 116.086 21.1133 116.749 20.4505L120.801 24.5406C119.57 25.7714 118.197 26.6803 116.673 27.2863C115.158 27.8922 113.577 28.1857 111.939 28.1857Z" fill="#F7F7F8"/>
<path d="M133.299 3.17038C135.022 3.17038 136.65 3.50175 138.165 4.15503C139.689 4.81778 141.015 5.70775 142.151 6.83442C143.287 7.96109 144.177 9.28659 144.84 10.8014C145.503 12.3258 145.825 13.9447 145.825 15.6774C145.825 17.4005 145.493 19.029 144.84 20.5533C144.177 22.0776 143.287 23.4031 142.151 24.5203C141.015 25.647 139.689 26.5369 138.165 27.1997C136.641 27.8624 135.022 28.1843 133.299 28.1843C131.576 28.1843 129.947 27.853 128.432 27.1997C126.908 26.5369 125.592 25.647 124.465 24.5203C123.339 23.3936 122.449 22.0681 121.795 20.5533C121.133 19.029 120.811 17.41 120.811 15.6774C120.811 13.9542 121.142 12.3258 121.795 10.8014C122.458 9.27712 123.348 7.95162 124.465 6.83442C125.582 5.71722 126.908 4.81778 128.432 4.15503C129.947 3.50175 131.576 3.17038 133.299 3.17038ZM133.318 22.4279C134.245 22.4279 135.126 22.248 135.94 21.8977C136.754 21.5474 137.474 21.0645 138.089 20.4491C138.705 19.8337 139.188 19.1236 139.538 18.2999C139.888 17.4857 140.068 16.6052 140.068 15.6774C140.068 14.7495 139.888 13.869 139.538 13.0548C139.188 12.2405 138.705 11.521 138.089 10.9056C137.474 10.2902 136.764 9.80732 135.94 9.45701C135.126 9.1067 134.245 8.92681 133.318 8.92681C132.39 8.92681 131.509 9.1067 130.695 9.45701C129.881 9.80732 129.161 10.2902 128.546 10.9056C127.93 11.521 127.448 12.2311 127.097 13.0548C126.747 13.869 126.567 14.7495 126.567 15.6774C126.567 16.6052 126.747 17.4857 127.097 18.2999C127.448 19.1142 127.93 19.8337 128.546 20.4491C129.161 21.0645 129.871 21.5474 130.695 21.8977C131.509 22.248 132.38 22.4279 133.318 22.4279Z" fill="#F7F7F8"/>
<path d="M164.258 3.17038H170.185L171.653 28.2222H165.896L165.281 17.997L161.806 28.2222H156.05L152.367 17.5899L151.685 28.2222H145.891L147.491 3.17038H153.418L158.909 18.8491L164.258 3.17038Z" fill="#F7F7F8"/>
<path d="M189.481 13.7365C189.481 15.1662 189.215 16.5106 188.676 17.7793C188.146 19.0385 187.407 20.1462 186.46 21.1025C185.514 22.0587 184.425 22.8162 183.175 23.3653C181.925 23.9239 180.581 24.2079 179.151 24.2363V28.2223H173.395V3.20831H179.151C180.581 3.22725 181.925 3.53022 183.175 4.09829C184.425 4.66636 185.523 5.42378 186.46 6.38003C187.407 7.33628 188.146 8.44401 188.676 9.70323C189.215 10.9625 189.481 12.3069 189.481 13.7365ZM179.161 18.4704C179.795 18.4515 180.391 18.3095 180.95 18.0444C181.509 17.7793 181.992 17.4384 182.399 17.0219C182.806 16.5958 183.128 16.1035 183.374 15.5354C183.611 14.9673 183.734 14.3614 183.734 13.7271C183.734 13.0927 183.611 12.4868 183.374 11.9092C183.137 11.3412 182.815 10.8394 182.399 10.4228C181.992 9.99673 181.509 9.65589 180.95 9.40026C180.391 9.13516 179.795 8.99315 179.161 8.97421V18.4704Z" fill="#F7F7F8"/>
<path d="M207.791 28.2222H192.899V3.17038H198.655V22.4658H207.791V28.2222Z" fill="#F7F7F8"/>
<path d="M214.021 28.2223L216.918 21.1309L208.359 3H214.731L219.882 13.869L224.275 3H230.514L220.251 28.2223H214.021Z" fill="#F7F7F8"/>
<path d="M7.86905 8.05711C9.83835 10.2252 11.9686 12.3744 13.8906 14.4763C14.0137 14.6088 14.222 14.6088 14.3545 14.4858C17.9901 10.8975 21.0009 7.65946 24.3146 4.39306H4.36596C4.34702 4.58242 4.38489 12.9709 4.68786 16.9853C4.90562 19.8351 6.84652 21.776 9.17561 23.2245C10.6336 24.1335 12.2053 24.8719 13.7675 25.601C14.1557 25.7809 14.79 25.8187 15.1593 25.6294C17.0244 24.6447 18.8422 23.5654 20.6601 22.505C23.3395 20.9333 24.1726 18.3676 24.5229 15.4893C24.5987 14.8739 24.9111 12.8668 25.394 12.4407C26.4733 11.4655 28.2817 9.83706 28.774 9.43941C28.774 10.8122 28.8308 13.094 28.7645 14.2301C28.6036 17.1083 28.2248 19.9297 26.6343 22.4671C25.4413 24.3607 23.7466 25.6767 21.9003 26.7844C19.8837 28.0058 17.7913 29.1041 15.6611 30.1171C15.0362 30.4106 14.0799 30.4958 13.4645 30.2213C9.98984 28.7064 6.60983 26.9643 3.81682 24.3512C1.43094 22.1263 0.408412 19.1534 0.285331 15.9722C0.0959743 11.191 0.11491 6.40024 0.0012962 1.60953C-0.0271072 0.435519 0.408412 0 1.59189 0.00946781C10.3875 0.0284034 19.1831 0.0189356 27.9692 0C28.6698 0 28.9349 0.236695 28.9065 0.956249C28.8497 2.43323 28.8971 3.91967 28.8024 5.39665C28.774 5.86058 28.5657 6.29609 28.2343 6.62747C25.1667 9.73291 22.0518 12.7815 18.9559 15.8681C17.6966 17.1273 16.4564 18.4149 15.235 19.712C14.5344 20.4599 14.1083 20.1759 13.1521 19.0682C11.9875 17.7237 10.539 16.6633 9.33656 15.3947C8.33297 14.3343 7.34832 13.7851 7.41459 12.4502C7.49034 11.0111 7.43353 9.79918 7.43353 8.36008C7.42406 7.90562 7.67969 7.82041 7.86905 8.05711Z" fill="#F7F7F8"/>
</svg>
